<svg xmlns="http://www.w3.org/2000/svg" version="1.0" preserveAspectRatio="xMidYMid meet" viewBox="165.38 149 169.33 171">

<g transform="translate(0.000000,500.000000) scale(0.100000,-0.100000)" fill="#000000" stroke="none">
<path d="M2442 3433 c-172 -271 -784 -1246 -788 -1258 -5 -13 92 -15 846 -15 733 0 851 2 847 14 -12 31 -839 1336 -847 1336 -4 0 -30 -35 -58 -77z m477 -605 c221 -350 401 -642 401 -648 0 -5 -12 -10 -26 -10 -20 0 -90 62 -327 293 -166 160 -388 375 -493 477 -105 102 -192 189 -193 194 0 5 47 87 107 182 81 130 110 169 119 161 6 -7 192 -299 412 -649z m-493 135 c85 -80 154 -150 154 -155 0 -5 -115 -150 -256 -323 l-255 -315 -60 0 c-32 0 -59 3 -59 6 0 12 314 934 318 934 2 0 73 -66 158 -147z m-351 -359 c-80 -235 -145 -429 -145 -431 0 -2 -56 -3 -125 -3 -86 0 -125 3 -125 11 0 13 533 860 538 855 1 -2 -63 -196 -143 -432z m687 -107 c86 -155 155 -283 153 -285 -2 -2 -117 76 -254 173 l-251 177 38 47 c20 25 61 77 91 114 30 37 57 64 60 61 3 -3 76 -132 163 -287z m265 -116 c112 -108 203 -199 203 -203 0 -5 -60 -8 -133 -8 l-134 0 -148 268 c-82 147 -156 278 -164 292 -17 28 73 -56 376 -349z m-358 -21 c137 -96 250 -178 251 -182 0 -8 -533 -11 -541 -4 -8 8 24 367 32 364 4 -2 120 -82 258 -178z m-296 0 c-8 -91 -16 -171 -18 -177 -3 -10 -38 -13 -130 -13 -69 0 -125 2 -125 6 0 6 283 355 285 351 1 -1 -4 -76 -12 -167z"/>
<path d="M1803 2026 c14 -11 17 -29 17 -109 0 -81 -3 -98 -17 -106 -14 -8 -3 -10 42 -10 50 0 56 2 38 11 -17 8 -23 20 -23 43 0 30 4 33 36 39 72 14 100 84 48 125 -21 17 -41 21 -93 21 -57 -1 -64 -2 -48 -14z m115 -18 c7 -7 12 -26 12 -43 0 -37 -16 -55 -47 -55 -21 0 -23 4 -23 55 0 51 2 55 23 55 13 0 28 -5 35 -12z"/>
<path d="M2035 2016 c-28 -28 -40 -81 -30 -132 9 -53 45 -84 95 -84 23 0 50 5 61 10 64 35 64 185 0 220 -36 19 -100 12 -126 -14z m117 -13 c27 -24 26 -143 -2 -168 -27 -24 -70 -22 -92 5 -23 29 -25 126 -2 158 18 27 69 30 96 5z"/>
<path d="M2253 2026 c14 -11 17 -29 17 -109 0 -81 -3 -98 -17 -106 -13 -8 7 -10 75 -11 l92 0 0 35 c0 41 -7 45 -20 10 -8 -21 -16 -25 -50 -25 l-40 0 0 96 c0 80 3 99 18 110 15 12 10 13 -38 13 -48 0 -53 -1 -37 -13z"/>
<path d="M2463 2026 c14 -11 17 -29 17 -109 0 -81 -3 -98 -17 -106 -13 -8 7 -10 75 -11 l92 0 0 35 c0 41 -7 45 -20 10 -8 -21 -16 -25 -50 -25 l-40 0 0 96 c0 80 3 99 18 110 15 12 10 13 -38 13 -48 0 -53 -1 -37 -13z"/>
<path d="M2673 2026 c14 -11 17 -29 17 -106 0 -77 -3 -95 -17 -106 -16 -12 -11 -13 37 -13 42 0 51 2 38 10 -15 8 -18 25 -18 106 0 80 3 98 18 109 15 12 10 13 -38 13 -48 0 -53 -1 -37 -13z"/>
<path d="M2810 2020 c-36 -36 -21 -79 40 -110 54 -27 67 -53 40 -80 -11 -11 -24 -20 -28 -20 -13 0 -39 23 -50 45 -10 19 -11 19 -18 1 -11 -28 9 -51 46 -54 51 -5 80 6 91 35 14 38 -2 68 -50 93 -43 22 -64 50 -55 73 12 31 74 24 74 -8 0 -9 6 -12 15 -9 21 8 19 31 -4 44 -31 16 -79 12 -101 -10z"/>
<path d="M2970 2030 c0 -5 7 -10 15 -10 24 0 22 -188 -2 -206 -16 -12 -11 -13 37 -14 53 0 54 1 32 16 -19 13 -22 24 -20 57 l3 42 53 3 52 3 0 -47 c0 -33 -5 -51 -17 -60 -16 -12 -11 -13 37 -13 42 0 51 2 38 10 -15 8 -18 25 -18 106 0 80 3 98 18 109 15 12 10 13 -38 13 -48 0 -53 -1 -37 -13 11 -9 17 -27 17 -55 l0 -42 -52 3 -53 3 -3 38 c-2 26 1 39 12 43 31 12 16 24 -29 24 -25 0 -45 -4 -45 -10z"/>
</g>
</svg>